<mxfile host="app.diagrams.net" modified="2023-10-16T07:59:10.384Z" agent="Mozilla/5.0 (Windows NT 10.0; Win64; x64) AppleWebKit/537.36 (KHTML, like Gecko) Chrome/118.0.0.0 Safari/537.36" etag="zp-5xk5uMwNsuApCj17S" version="22.0.4" type="github">
  <diagram id="C5RBs43oDa-KdzZeNtuy" name="Page-1">
    <mxGraphModel dx="950" dy="950" grid="1" gridSize="10" guides="1" tooltips="1" connect="1" arrows="1" fold="1" page="1" pageScale="1" pageWidth="827" pageHeight="1169" math="0" shadow="0">
      <root>
        <mxCell id="WIyWlLk6GJQsqaUBKTNV-0" />
        <mxCell id="WIyWlLk6GJQsqaUBKTNV-1" parent="WIyWlLk6GJQsqaUBKTNV-0" />
        <mxCell id="WIyWlLk6GJQsqaUBKTNV-3" value="영업팀 주문서 발주" style="rounded=1;whiteSpace=wrap;html=1;fontSize=12;glass=0;strokeWidth=1;shadow=0;" parent="WIyWlLk6GJQsqaUBKTNV-1" vertex="1">
          <mxGeometry x="257.5" y="100" width="130" height="40" as="geometry" />
        </mxCell>
        <mxCell id="WIyWlLk6GJQsqaUBKTNV-11" value="프로세스 완료" style="rounded=1;whiteSpace=wrap;html=1;fontSize=12;glass=0;strokeWidth=1;shadow=0;" parent="WIyWlLk6GJQsqaUBKTNV-1" vertex="1">
          <mxGeometry x="264" y="793" width="120" height="40" as="geometry" />
        </mxCell>
        <mxCell id="WIyWlLk6GJQsqaUBKTNV-12" value="거래명세서에 &lt;br&gt;해당 장비의 SN 표시" style="rounded=1;whiteSpace=wrap;html=1;fontSize=12;glass=0;strokeWidth=1;shadow=0;arcSize=0;" parent="WIyWlLk6GJQsqaUBKTNV-1" vertex="1">
          <mxGeometry x="255" y="501" width="140" height="50" as="geometry" />
        </mxCell>
        <mxCell id="qs7HbI76NU4g606yzsqf-4" value="거래명세서와 &lt;br&gt;장비의 주문번호가 &lt;br&gt;일치하는가?" style="rhombus;whiteSpace=wrap;html=1;shadow=0;fontFamily=Helvetica;fontSize=12;align=center;strokeWidth=1;spacing=6;spacingTop=-4;" vertex="1" parent="WIyWlLk6GJQsqaUBKTNV-1">
          <mxGeometry x="220" y="390" width="205" height="70" as="geometry" />
        </mxCell>
        <mxCell id="qs7HbI76NU4g606yzsqf-10" value="주문번호 생성" style="rounded=0;whiteSpace=wrap;html=1;" vertex="1" parent="WIyWlLk6GJQsqaUBKTNV-1">
          <mxGeometry x="260" y="170" width="125" height="40" as="geometry" />
        </mxCell>
        <mxCell id="qs7HbI76NU4g606yzsqf-12" value="거래명세서 입력" style="rounded=0;whiteSpace=wrap;html=1;" vertex="1" parent="WIyWlLk6GJQsqaUBKTNV-1">
          <mxGeometry x="257.5" y="310" width="125" height="40" as="geometry" />
        </mxCell>
        <mxCell id="qs7HbI76NU4g606yzsqf-19" value="" style="edgeStyle=orthogonalEdgeStyle;rounded=0;orthogonalLoop=1;jettySize=auto;html=1;" edge="1" parent="WIyWlLk6GJQsqaUBKTNV-1">
          <mxGeometry relative="1" as="geometry">
            <mxPoint x="320.5" y="141" as="sourcePoint" />
            <mxPoint x="321" y="170" as="targetPoint" />
          </mxGeometry>
        </mxCell>
        <mxCell id="qs7HbI76NU4g606yzsqf-25" value="거래명세서에 장비 SN &lt;br&gt;정보 뜨지않는다." style="rounded=0;whiteSpace=wrap;html=1;" vertex="1" parent="WIyWlLk6GJQsqaUBKTNV-1">
          <mxGeometry x="475" y="405" width="164" height="40" as="geometry" />
        </mxCell>
        <mxCell id="qs7HbI76NU4g606yzsqf-26" value="" style="endArrow=classic;html=1;rounded=0;exitX=0.5;exitY=1;exitDx=0;exitDy=0;" edge="1" parent="WIyWlLk6GJQsqaUBKTNV-1" source="qs7HbI76NU4g606yzsqf-4">
          <mxGeometry width="50" height="50" relative="1" as="geometry">
            <mxPoint x="295" y="530" as="sourcePoint" />
            <mxPoint x="323" y="500" as="targetPoint" />
          </mxGeometry>
        </mxCell>
        <mxCell id="qs7HbI76NU4g606yzsqf-29" value="" style="edgeStyle=orthogonalEdgeStyle;rounded=0;orthogonalLoop=1;jettySize=auto;html=1;" edge="1" parent="WIyWlLk6GJQsqaUBKTNV-1">
          <mxGeometry relative="1" as="geometry">
            <mxPoint x="320.5" y="209" as="sourcePoint" />
            <mxPoint x="321" y="238" as="targetPoint" />
          </mxGeometry>
        </mxCell>
        <mxCell id="qs7HbI76NU4g606yzsqf-30" value="장비 입력" style="rounded=0;whiteSpace=wrap;html=1;" vertex="1" parent="WIyWlLk6GJQsqaUBKTNV-1">
          <mxGeometry x="257.5" y="240" width="125" height="40" as="geometry" />
        </mxCell>
        <mxCell id="qs7HbI76NU4g606yzsqf-34" value="" style="endArrow=classic;html=1;rounded=0;exitX=0.5;exitY=1;exitDx=0;exitDy=0;" edge="1" parent="WIyWlLk6GJQsqaUBKTNV-1" source="qs7HbI76NU4g606yzsqf-30">
          <mxGeometry width="50" height="50" relative="1" as="geometry">
            <mxPoint x="305" y="330" as="sourcePoint" />
            <mxPoint x="320" y="310" as="targetPoint" />
          </mxGeometry>
        </mxCell>
        <mxCell id="qs7HbI76NU4g606yzsqf-36" value="" style="endArrow=classic;html=1;rounded=0;exitX=0.5;exitY=1;exitDx=0;exitDy=0;" edge="1" parent="WIyWlLk6GJQsqaUBKTNV-1" source="qs7HbI76NU4g606yzsqf-12">
          <mxGeometry width="50" height="50" relative="1" as="geometry">
            <mxPoint x="325" y="400" as="sourcePoint" />
            <mxPoint x="320" y="390" as="targetPoint" />
          </mxGeometry>
        </mxCell>
        <mxCell id="qs7HbI76NU4g606yzsqf-38" value="" style="endArrow=classic;html=1;rounded=0;exitX=1;exitY=0.5;exitDx=0;exitDy=0;entryX=0;entryY=0.5;entryDx=0;entryDy=0;" edge="1" parent="WIyWlLk6GJQsqaUBKTNV-1" source="qs7HbI76NU4g606yzsqf-4" target="qs7HbI76NU4g606yzsqf-25">
          <mxGeometry width="50" height="50" relative="1" as="geometry">
            <mxPoint x="455" y="440" as="sourcePoint" />
            <mxPoint x="505" y="390" as="targetPoint" />
          </mxGeometry>
        </mxCell>
        <UserObject label="아니오" placeholders="1" name="Variable" id="qs7HbI76NU4g606yzsqf-51">
          <mxCell style="text;html=1;strokeColor=none;fillColor=none;align=center;verticalAlign=middle;whiteSpace=wrap;overflow=hidden;" vertex="1" parent="WIyWlLk6GJQsqaUBKTNV-1">
            <mxGeometry x="408" y="405" width="80" height="20" as="geometry" />
          </mxCell>
        </UserObject>
        <UserObject label="네" placeholders="1" name="Variable" id="qs7HbI76NU4g606yzsqf-52">
          <mxCell style="text;html=1;strokeColor=none;fillColor=none;align=center;verticalAlign=middle;whiteSpace=wrap;overflow=hidden;" vertex="1" parent="WIyWlLk6GJQsqaUBKTNV-1">
            <mxGeometry x="299" y="470" width="80" height="20" as="geometry" />
          </mxCell>
        </UserObject>
        <mxCell id="qs7HbI76NU4g606yzsqf-53" value="" style="endArrow=classic;html=1;rounded=0;" edge="1" parent="WIyWlLk6GJQsqaUBKTNV-1">
          <mxGeometry width="50" height="50" relative="1" as="geometry">
            <mxPoint x="323" y="552" as="sourcePoint" />
            <mxPoint x="323" y="590" as="targetPoint" />
          </mxGeometry>
        </mxCell>
        <mxCell id="qs7HbI76NU4g606yzsqf-56" value="SN 클릭시 장비 &lt;br&gt;메인 페이지로 이동" style="shape=display;whiteSpace=wrap;html=1;" vertex="1" parent="WIyWlLk6GJQsqaUBKTNV-1">
          <mxGeometry x="235" y="590" width="160" height="50" as="geometry" />
        </mxCell>
        <mxCell id="qs7HbI76NU4g606yzsqf-57" value="해당 SN을 가진&amp;nbsp;&lt;br&gt;라이센스가 존재하는가?" style="rhombus;whiteSpace=wrap;html=1;shadow=0;fontFamily=Helvetica;fontSize=12;align=center;strokeWidth=1;spacing=6;spacingTop=-4;" vertex="1" parent="WIyWlLk6GJQsqaUBKTNV-1">
          <mxGeometry x="220" y="680" width="205" height="70" as="geometry" />
        </mxCell>
        <mxCell id="qs7HbI76NU4g606yzsqf-60" value="" style="endArrow=classic;html=1;rounded=0;" edge="1" parent="WIyWlLk6GJQsqaUBKTNV-1">
          <mxGeometry width="50" height="50" relative="1" as="geometry">
            <mxPoint x="322" y="641" as="sourcePoint" />
            <mxPoint x="322" y="679" as="targetPoint" />
          </mxGeometry>
        </mxCell>
        <mxCell id="qs7HbI76NU4g606yzsqf-61" value="라이센스 입력 페이지로 이동" style="rounded=0;whiteSpace=wrap;html=1;" vertex="1" parent="WIyWlLk6GJQsqaUBKTNV-1">
          <mxGeometry x="476" y="695" width="164" height="40" as="geometry" />
        </mxCell>
        <mxCell id="qs7HbI76NU4g606yzsqf-62" value="" style="endArrow=classic;html=1;rounded=0;exitX=1;exitY=0.5;exitDx=0;exitDy=0;entryX=0;entryY=0.5;entryDx=0;entryDy=0;" edge="1" parent="WIyWlLk6GJQsqaUBKTNV-1" target="qs7HbI76NU4g606yzsqf-61">
          <mxGeometry width="50" height="50" relative="1" as="geometry">
            <mxPoint x="426" y="715" as="sourcePoint" />
            <mxPoint x="506" y="680" as="targetPoint" />
          </mxGeometry>
        </mxCell>
        <UserObject label="아니오" placeholders="1" name="Variable" id="qs7HbI76NU4g606yzsqf-63">
          <mxCell style="text;html=1;strokeColor=none;fillColor=none;align=center;verticalAlign=middle;whiteSpace=wrap;overflow=hidden;" vertex="1" parent="WIyWlLk6GJQsqaUBKTNV-1">
            <mxGeometry x="406" y="695" width="80" height="20" as="geometry" />
          </mxCell>
        </UserObject>
        <mxCell id="qs7HbI76NU4g606yzsqf-64" value="" style="endArrow=classic;html=1;rounded=0;exitX=0.473;exitY=0.986;exitDx=0;exitDy=0;exitPerimeter=0;" edge="1" parent="WIyWlLk6GJQsqaUBKTNV-1">
          <mxGeometry width="50" height="50" relative="1" as="geometry">
            <mxPoint x="322.9649999999999" y="751.02" as="sourcePoint" />
            <mxPoint x="323" y="792" as="targetPoint" />
          </mxGeometry>
        </mxCell>
        <UserObject label="네" placeholders="1" name="Variable" id="qs7HbI76NU4g606yzsqf-65">
          <mxCell style="text;html=1;strokeColor=none;fillColor=none;align=center;verticalAlign=middle;whiteSpace=wrap;overflow=hidden;" vertex="1" parent="WIyWlLk6GJQsqaUBKTNV-1">
            <mxGeometry x="305" y="760" width="80" height="20" as="geometry" />
          </mxCell>
        </UserObject>
        <mxCell id="qs7HbI76NU4g606yzsqf-67" value="" style="endArrow=classic;html=1;rounded=0;exitX=1;exitY=0.5;exitDx=0;exitDy=0;entryX=0;entryY=0.5;entryDx=0;entryDy=0;" edge="1" parent="WIyWlLk6GJQsqaUBKTNV-1" source="qs7HbI76NU4g606yzsqf-12" target="qs7HbI76NU4g606yzsqf-68">
          <mxGeometry width="50" height="50" relative="1" as="geometry">
            <mxPoint x="395" y="350" as="sourcePoint" />
            <mxPoint x="425" y="330" as="targetPoint" />
          </mxGeometry>
        </mxCell>
        <mxCell id="qs7HbI76NU4g606yzsqf-68" value="거래명세서에 있는 &lt;br&gt;장비가 &lt;br&gt;등록되어 있는가?" style="rhombus;whiteSpace=wrap;html=1;" vertex="1" parent="WIyWlLk6GJQsqaUBKTNV-1">
          <mxGeometry x="445" y="295" width="200" height="70" as="geometry" />
        </mxCell>
        <mxCell id="qs7HbI76NU4g606yzsqf-71" value="" style="edgeStyle=segmentEdgeStyle;endArrow=classic;html=1;curved=0;rounded=0;endSize=8;startSize=8;exitX=0.5;exitY=0;exitDx=0;exitDy=0;" edge="1" parent="WIyWlLk6GJQsqaUBKTNV-1" source="qs7HbI76NU4g606yzsqf-68">
          <mxGeometry width="50" height="50" relative="1" as="geometry">
            <mxPoint x="519" y="287" as="sourcePoint" />
            <mxPoint x="383" y="267" as="targetPoint" />
            <Array as="points">
              <mxPoint x="545" y="267" />
            </Array>
          </mxGeometry>
        </mxCell>
        <UserObject label="아니오" placeholders="1" name="Variable" id="qs7HbI76NU4g606yzsqf-72">
          <mxCell style="text;html=1;strokeColor=none;fillColor=none;align=center;verticalAlign=middle;whiteSpace=wrap;overflow=hidden;" vertex="1" parent="WIyWlLk6GJQsqaUBKTNV-1">
            <mxGeometry x="439" y="269" width="80" height="20" as="geometry" />
          </mxCell>
        </UserObject>
      </root>
    </mxGraphModel>
  </diagram>
</mxfile>
